<svg width="1440" height="854" viewBox="0 0 1440 854" fill="none" xmlns="http://www.w3.org/2000/svg">
<g clip-path="url(#clip0)">
<path opacity="0.1" d="M1492.25 348.667H1321.25V219.167C1321.25 207.718 1316.75 196.739 1308.73 188.643C1300.71 180.548 1289.84 176 1278.5 176H936.5C925.162 176 914.288 180.548 906.271 188.643C898.254 196.739 893.75 207.718 893.75 219.167V521.333H722.75C711.412 521.333 700.538 525.881 692.521 533.977C684.504 542.072 680 553.052 680 564.5V909.833C680 921.282 684.504 932.262 692.521 940.357C700.538 948.452 711.412 953 722.75 953H1492.25C1503.59 953 1514.46 948.452 1522.48 940.357C1530.5 932.262 1535 921.282 1535 909.833V391.833C1535 380.385 1530.5 369.405 1522.48 361.31C1514.46 353.215 1503.59 348.667 1492.25 348.667ZM851 866.667H765.5V780.333H851V866.667ZM851 694H765.5V607.667H851V694ZM1064.75 866.667H979.25V780.333H1064.75V866.667ZM1064.75 694H979.25V607.667H1064.75V694ZM1064.75 521.333H979.25V435H1064.75V521.333ZM1064.75 348.667H979.25V262.333H1064.75V348.667ZM1235.75 866.667H1150.25V780.333H1235.75V866.667ZM1235.75 694H1150.25V607.667H1235.75V694ZM1235.75 521.333H1150.25V435H1235.75V521.333ZM1235.75 348.667H1150.25V262.333H1235.75V348.667ZM1449.5 866.667H1364V780.333H1449.5V866.667ZM1449.5 694H1364V607.667H1449.5V694ZM1449.5 521.333H1364V435H1449.5V521.333Z" fill="#006ACC"/>
<path opacity="0.05" d="M0 0H841C757.379 53.7465 830 244 755 319C680 394 566 437 566 598.5C566 760 524 854 524 854H0V0Z" fill="#A7ACBC"/>
</g>
<defs>
<clipPath id="clip0">
<rect width="1440" height="854" fill="white"/>
</clipPath>
</defs>
</svg>
