<svg width="22" height="20" viewBox="0 0 22 20" fill="none" xmlns="http://www.w3.org/2000/svg">
<path d="M20.9 4.44444H16.5V1.11111C16.5 0.816426 16.3841 0.533811 16.1778 0.325437C15.9715 0.117063 15.6917 0 15.4 0H6.6C6.30826 0 6.02847 0.117063 5.82218 0.325437C5.61589 0.533811 5.5 0.816426 5.5 1.11111V8.88889H1.1C0.808262 8.88889 0.528472 9.00595 0.322183 9.21433C0.115892 9.4227 0 9.70532 0 10V18.8889C0 19.1836 0.115892 19.4662 0.322183 19.6746C0.528472 19.8829 0.808262 20 1.1 20H20.9C21.1917 20 21.4715 19.8829 21.6778 19.6746C21.8841 19.4662 22 19.1836 22 18.8889V5.55556C22 5.26087 21.8841 4.97826 21.6778 4.76988C21.4715 4.56151 21.1917 4.44444 20.9 4.44444ZM4.4 17.7778H2.2V15.5556H4.4V17.7778ZM4.4 13.3333H2.2V11.1111H4.4V13.3333ZM9.9 17.7778H7.7V15.5556H9.9V17.7778ZM9.9 13.3333H7.7V11.1111H9.9V13.3333ZM9.9 8.88889H7.7V6.66667H9.9V8.88889ZM9.9 4.44444H7.7V2.22222H9.9V4.44444ZM14.3 17.7778H12.1V15.5556H14.3V17.7778ZM14.3 13.3333H12.1V11.1111H14.3V13.3333ZM14.3 8.88889H12.1V6.66667H14.3V8.88889ZM14.3 4.44444H12.1V2.22222H14.3V4.44444ZM19.8 17.7778H17.6V15.5556H19.8V17.7778ZM19.8 13.3333H17.6V11.1111H19.8V13.3333ZM19.8 8.88889H17.6V6.66667H19.8V8.88889Z" fill="#0078E7"/>
</svg>
